HIERARCHY
ROOT Hips
{
  OFFSET 5.80788e-005 67.184 3.4734
  CHANNELS 6 Xposition Yposition Zposition Zrotation Xrotation Yrotation
  JOINT Chest
  {
    OFFSET 0 8.7983 -4.7612
    CHANNELS 3 Zrotation Xrotation Yrotation
    JOINT Chest2
    {
      OFFSET 0 8.0291 0.4195
      CHANNELS 3 Zrotation Xrotation Yrotation
      JOINT Chest3
      {
        OFFSET 0 9.9351 -2.2114
        CHANNELS 3 Zrotation Xrotation Yrotation
        JOINT Neck
        {
          OFFSET 0 22.3885 -0.4656
          CHANNELS 3 Zrotation Xrotation Yrotation
          JOINT Head
          {
            OFFSET -0.0001 12.643 3.4389
            CHANNELS 3 Zrotation Xrotation Yrotation
            End Site
            {
              OFFSET 0.0001 17.6655 0.5274
            }
          }
        }
        JOINT LeftCollar
        {
          OFFSET 2.2603 21.606 7.4023
          CHANNELS 3 Zrotation Xrotation Yrotation
          JOINT LeftShoulder
          {
            OFFSET 13.5163 -1.1332 -5.0146
            CHANNELS 3 Zrotation Xrotation Yrotation
            JOINT LeftElbow
            {
              OFFSET -0.0995 -28.05 -0.2431
              CHANNELS 3 Zrotation Xrotation Yrotation
              JOINT LeftWrist
              {
                OFFSET 0.0679 -23.3996 -0.1402
                CHANNELS 3 Zrotation Xrotation Yrotation
                JOINT LeftFinger1
                {
                  OFFSET 0.7932 -9.069 2.5189
                  CHANNELS 3 Zrotation Xrotation Yrotation
                  JOINT LeftFinger11
                  {
                    OFFSET -0.8272 -3.3923 0.5977
                    CHANNELS 3 Zrotation Xrotation Yrotation
                    JOINT LeftFinger12
                    {
                      OFFSET -0.5649 -2.3158 0.4082
                      CHANNELS 3 Zrotation Xrotation Yrotation
                      End Site
                      {
                        OFFSET -0.4919 -1.6479 0.2673
                      }
                    }
                  }
                }
                JOINT LeftFinger2
                {
                  OFFSET 0.9159 -9.2044 0.2193
                  CHANNELS 3 Zrotation Xrotation Yrotation
                  JOINT LeftFinger21
                  {
                    OFFSET 0.0117 -4.1944 -0.0248
                    CHANNELS 3 Zrotation Xrotation Yrotation
                    JOINT LeftFinger22
                    {
                      OFFSET 0.0071 -2.3249 -0.0142
                      CHANNELS 3 Zrotation Xrotation Yrotation
                      End Site
                      {
                        OFFSET -0.1475 -2.0882 0.0028
                      }
                    }
                  }
                }
                JOINT LeftFinger3
                {
                  OFFSET 0.6113 -8.7231 -2.0637
                  CHANNELS 3 Zrotation Xrotation Yrotation
                  JOINT LeftFinger31
                  {
                    OFFSET -0.1927 -3.8059 -0.2383
                    CHANNELS 3 Zrotation Xrotation Yrotation
                    JOINT LeftFinger32
                    {
                      OFFSET -0.1091 -2.1688 -0.1362
                      CHANNELS 3 Zrotation Xrotation Yrotation
                      End Site
                      {
                        OFFSET -0.2358 -1.9176 -0.0906
                      }
                    }
                  }
                }
                JOINT LeftFinger4
                {
                  OFFSET -0.6151 -8.0947 -3.5641
                  CHANNELS 3 Zrotation Xrotation Yrotation
                  JOINT LeftFinger41
                  {
                    OFFSET -0.4882 -2.341 -0.6462
                    CHANNELS 3 Zrotation Xrotation Yrotation
                    JOINT LeftFinger42
                    {
                      OFFSET -0.3575 -1.7167 -0.4742
                      CHANNELS 3 Zrotation Xrotation Yrotation
                      End Site
                      {
                        OFFSET -0.4187 -1.5237 -0.3496
                      }
                    }
                  }
                }
                JOINT LeftFinger0
                {
                  OFFSET -1.42 -1.8761 1.4223
                  CHANNELS 3 Zrotation Xrotation Yrotation
                  JOINT LeftFinger01
                  {
                    OFFSET -1.1471 -3.4929 2.6334
                    CHANNELS 3 Zrotation Xrotation Yrotation
                    JOINT LeftFinger02
                    {
                      OFFSET -0.823 -2.3 1.6571
                      CHANNELS 3 Zrotation Xrotation Yrotation
                      End Site
                      {
                        OFFSET -0.5822 -1.6914 1.1582
                      }
                    }
                  }
                }
              }
            }
          }
        }
        JOINT RightCollar
        {
          OFFSET -2.2603 21.606 7.4023
          CHANNELS 3 Zrotation Xrotation Yrotation
          JOINT RightShoulder
          {
            OFFSET -13.5187 -1.1334 -5.0155
            CHANNELS 3 Zrotation Xrotation Yrotation
            JOINT RightElbow
            {
              OFFSET 0.0994 -28.0499 -0.2431
              CHANNELS 3 Zrotation Xrotation Yrotation
              JOINT RightWrist
              {
                OFFSET -0.0679 -23.3996 -0.1402
                CHANNELS 3 Zrotation Xrotation Yrotation
                JOINT RightFinger1
                {
                  OFFSET -0.7932 -9.0691 2.5189
                  CHANNELS 3 Zrotation Xrotation Yrotation
                  JOINT RightFinger11
                  {
                    OFFSET 0.8272 -3.3923 0.5977
                    CHANNELS 3 Zrotation Xrotation Yrotation
                    JOINT RightFinger12
                    {
                      OFFSET 0.565 -2.3158 0.4082
                      CHANNELS 3 Zrotation Xrotation Yrotation
                      End Site
                      {
                        OFFSET 0.4919 -1.6479 0.2673
                      }
                    }
                  }
                }
                JOINT RightFinger2
                {
                  OFFSET -0.916 -9.2044 0.2193
                  CHANNELS 3 Zrotation Xrotation Yrotation
                  JOINT RightFinger21
                  {
                    OFFSET -0.0117 -4.1944 -0.0248
                    CHANNELS 3 Zrotation Xrotation Yrotation
                    JOINT RightFinger22
                    {
                      OFFSET -0.0071 -2.3249 -0.0142
                      CHANNELS 3 Zrotation Xrotation Yrotation
                      End Site
                      {
                        OFFSET 0.1475 -2.0882 0.0028
                      }
                    }
                  }
                }
                JOINT RightFinger3
                {
                  OFFSET -0.6113 -8.7231 -2.0637
                  CHANNELS 3 Zrotation Xrotation Yrotation
                  JOINT RightFinger31
                  {
                    OFFSET 0.1927 -3.8059 -0.2383
                    CHANNELS 3 Zrotation Xrotation Yrotation
                    JOINT RightFinger32
                    {
                      OFFSET 0.1091 -2.1688 -0.1362
                      CHANNELS 3 Zrotation Xrotation Yrotation
                      End Site
                      {
                        OFFSET 0.2358 -1.9176 -0.0906
                      }
                    }
                  }
                }
                JOINT RightFinger4
                {
                  OFFSET 0.6151 -8.0947 -3.564
                  CHANNELS 3 Zrotation Xrotation Yrotation
                  JOINT RightFinger41
                  {
                    OFFSET 0.4882 -2.341 -0.6462
                    CHANNELS 3 Zrotation Xrotation Yrotation
                    JOINT RightFinger42
                    {
                      OFFSET 0.3574 -1.7166 -0.4742
                      CHANNELS 3 Zrotation Xrotation Yrotation
                      End Site
                      {
                        OFFSET 0.4187 -1.5237 -0.3496
                      }
                    }
                  }
                }
                JOINT RightFinger0
                {
                  OFFSET 1.4199 -1.8761 1.4221
                  CHANNELS 3 Zrotation Xrotation Yrotation
                  JOINT RightFinger01
                  {
                    OFFSET 1.1472 -3.4929 2.6336
                    CHANNELS 3 Zrotation Xrotation Yrotation
                    JOINT RightFinger02
                    {
                      OFFSET 0.8229 -2.3 1.6571
                      CHANNELS 3 Zrotation Xrotation Yrotation
                      End Site
                      {
                        OFFSET 0.5822 -1.6914 1.1582
                      }
                    }
                  }
                }
              }
            }
          }
        }
      }
    }
  }
  JOINT RightHip
  {
    OFFSET -9.412 3.9771 -0.7758
    CHANNELS 3 Zrotation Xrotation Yrotation
    JOINT RightKnee
    {
      OFFSET -0.7531 -40.938 0
      CHANNELS 3 Zrotation Xrotation Yrotation
      JOINT RightAnkle
      {
        OFFSET 0 -40.1986 0
        CHANNELS 3 Zrotation Xrotation Yrotation
        JOINT RightToe
        {
          OFFSET 0 -4.4182 9.239
          CHANNELS 3 Zrotation Xrotation Yrotation
          End Site
          {
            OFFSET 0 0 6.1981
          }
        }
      }
    }
  }
  JOINT LeftHip
  {
    OFFSET 9.4119 3.9773 -0.7758
    CHANNELS 3 Zrotation Xrotation Yrotation
    JOINT LeftKnee
    {
      OFFSET 0.7532 -40.9383 0
      CHANNELS 3 Zrotation Xrotation Yrotation
      JOINT LeftAnkle
      {
        OFFSET 0 -40.1986 0
        CHANNELS 3 Zrotation Xrotation Yrotation
        JOINT LeftToe
        {
          OFFSET 0 -4.4182 9.239
          CHANNELS 3 Zrotation Xrotation Yrotation
          End Site
          {
            OFFSET 0 0 6.1981
          }
        }
      }
    }
  }
}
MOTION
Frames:	5
Frame Time:	0.0333333
-0.000351508 5.8073 -7.65758 -1.52633e-007 85.7025 1.74613e-007 -0.309987 0.0826676 -0.108322 -0.619827 0.165953 -0.216199 -0.619827 0.165947 -0.216199 24.8488 14.5837 -6.65295 19.4399 21.8116 -7.47378 -8.00265 -0.194477 -12.5014 41.0906 -54.0592 46.1147 -162.624 -57.0654 154.779 -6.61522 1.42846 -7.33667 3.34401e-006 2.75107e-006 -1.94924e-006 -3.34401e-006 -2.75107e-006 1.94924e-006 3.34401e-006 2.75107e-006 -1.94924e-006 3.34401e-006 2.75107e-006 -1.94924e-006 -0.0128247 0.00232854 8.19342e-005 3.97569e-016 0 6.16232e-015 3.34401e-006 2.75107e-006 -1.94924e-006 -0.0160325 0.00299783 0.000850048 -9.93923e-016 1.27222e-014 1.52816e-015 3.34401e-006 2.75107e-006 -1.94924e-006 -0.0126203 0.00312441 0.00283105 1.64271e-006 2.75306e-006 -1.81822e-006 3.34401e-006 2.75107e-006 -1.94924e-006 -3.34401e-006 -2.75107e-006 1.94924e-006 3.34401e-006 2.75107e-006 -1.94924e-006 7.13352 -0.0288749 7.03565 -34.14 -56.0263 -38.6237 166.972 -56.5747 -151.635 6.45465 1.28457 7.50891 7.95139e-016 -7.95139e-016 2.28602e-015 7.95139e-016 0 2.13694e-015 1.19271e-015 0 -1.06847e-015 7.95139e-016 -7.95139e-016 2.28602e-015 0.0129648 0.0023216 -8.9744e-005 -1.69809e-006 1.99849e-006 1.71084e-007 7.95139e-016 -7.95139e-016 2.28602e-015 0.016332 0.00303829 -0.000874573 1.63162e-006 -2.81067e-006 -1.78635e-006 7.95139e-016 -7.95139e-016 2.28602e-015 0.0145732 0.00367618 -0.00326665 1.76463e-006 3.70753e-008 1.44438e-006 7.95139e-016 -7.95139e-016 2.28602e-015 7.95139e-016 0 2.13694e-015 1.19271e-015 0 -1.06847e-015 -118.186 -25.4117 -104.459 176.953 43.3746 177.617 4.99336 14.5007 -7.93528 -5.95099e-006 2.8397e-006 7.86302e-006 118.184 -25.4288 104.465 -176.87 43.3818 -177.645 -5.00312 14.4902 7.93266 2.05851e-006 -1.32983e-005 -4.32101e-006 
-0.000355177 5.7785 -7.64102 -1.7127e-007 85.458 1.8472e-007 -0.310141 0.144524 -0.107326 -0.620004 0.289643 -0.213865 -0.620004 0.289631 -0.213865 24.8488 14.5837 -6.65296 19.4399 21.8116 -7.47378 -8.00267 -0.194484 -12.5014 41.0906 -54.0593 46.1147 -162.624 -57.0654 154.779 -6.6152 1.42848 -7.33669 -1.65521e-032 -2.38542e-015 -3.97569e-016 1.98785e-016 -1.59028e-015 2.82026e-015 1.98785e-016 -7.95139e-016 2.85753e-015 -1.65521e-032 -2.38542e-015 -3.97569e-016 -0.0128173 0.00232856 8.53109e-005 -1.70207e-006 -2.55e-006 1.30063e-007 -1.65521e-032 -2.38542e-015 -3.97569e-016 -0.0160667 0.00300649 0.000853924 -1.98785e-016 1.35174e-014 5.46658e-015 -1.65521e-032 -2.38542e-015 -3.97569e-016 -0.0125573 0.00311653 0.00281745 -3.97569e-016 0 6.70898e-016 -1.65521e-032 -2.38542e-015 -3.97569e-016 1.98785e-016 -1.59028e-015 2.82026e-015 1.98785e-016 -7.95139e-016 2.85753e-015 7.1335 -0.0288723 7.03564 -34.1398 -56.0264 -38.6236 166.972 -56.5748 -151.635 6.45462 1.28461 7.50891 2.40299e-006 2.72025e-006 5.80864e-006 -3.97569e-016 -1.59028e-015 -8.64713e-015 1.69813e-006 -2.76231e-006 -1.70226e-007 2.40299e-006 2.72025e-006 5.80864e-006 0.0129414 0.00231073 -8.40494e-005 1.69813e-006 -1.917e-006 -1.70158e-007 2.40299e-006 2.72025e-006 5.80864e-006 0.0163327 0.00303575 -0.000871052 1.6355e-006 -1.69092e-006 -1.78581e-006 2.40299e-006 2.72025e-006 5.80864e-006 0.0145814 0.00365663 -0.00325562 -0 0 6.11263e-015 2.40299e-006 2.72025e-006 5.80864e-006 -3.97569e-016 -1.59028e-015 -8.64713e-015 1.69813e-006 -2.76231e-006 -1.70226e-007 -117.93 -25.5631 -104.194 176.953 43.3726 177.621 4.79548 14.4427 -7.85177 7.01249e-006 -6.10546e-006 -4.21739e-006 117.928 -25.5813 104.199 -176.87 43.3805 -177.649 -4.80418 14.4234 7.84794 1.38296e-006 -3.09914e-006 9.86683e-007 
-0.000359216 5.74973 -7.62432 6.95342e-008 85.2134 -6.97775e-008 -0.310328 0.206413 -0.106337 -0.620279 0.41342 -0.211557 -0.62027 0.413409 -0.211554 24.8489 14.5837 -6.65287 19.4399 21.8116 -7.47378 -8.0025 -0.194562 -12.5013 41.0907 -54.0593 46.1147 -162.624 -57.0653 154.779 -6.61521 1.4285 -7.33668 2.65407e-006 -1.0257e-005 -7.44373e-006 1.64973e-006 2.5295e-006 -1.81686e-006 1.21947e-006 -6.81101e-006 -4.35687e-006 2.65407e-006 -1.0257e-005 -7.44373e-006 -0.0128107 0.00232473 8.19205e-005 5.05465e-006 5.25309e-006 -2.07504e-006 2.65407e-006 -1.0257e-005 -7.44373e-006 -0.0160445 0.00300292 0.000854761 1.98785e-016 -2.38542e-015 4.73356e-015 2.65407e-006 -1.0257e-005 -7.44373e-006 -0.0126019 0.0031343 0.00283455 6.99881e-007 2.82313e-006 5.49717e-006 2.65407e-006 -1.0257e-005 -7.44373e-006 1.64973e-006 2.5295e-006 -1.81686e-006 1.21947e-006 -6.81101e-006 -4.35687e-006 7.13367 -0.0289605 7.03571 -34.1401 -56.0263 -38.6238 166.972 -56.5748 -151.635 6.45464 1.2846 7.5089 -9.93354e-007 2.33522e-006 6.14817e-006 -6.79268e-006 1.72144e-005 6.77208e-007 1.19271e-015 -1.59028e-015 2.98177e-015 -9.93354e-007 2.33522e-006 6.14817e-006 0.0129481 0.00233746 -8.25817e-005 7.95139e-016 1.59028e-015 7.67806e-015 -9.93354e-007 2.33522e-006 6.14817e-006 0.0163506 0.00305627 -0.000877906 1.69816e-006 -2.83746e-006 -1.69211e-007 -9.93354e-007 2.33522e-006 6.14817e-006 0.0145707 0.00368886 -0.00326951 7.79169e-006 -2.73047e-006 6.67516e-006 -9.93354e-007 2.33522e-006 6.14817e-006 -6.79268e-006 1.72144e-005 6.77208e-007 1.19271e-015 -1.59028e-015 2.98177e-015 -117.672 -25.7135 -103.927 176.953 43.3706 177.625 4.59779 14.3843 -7.76853 -1.38239e-006 -1.23709e-006 -9.88398e-007 117.67 -25.7328 103.933 -176.87 43.3792 -177.653 -4.60543 14.3562 7.7635 -1.095e-006 2.26921e-006 -1.94674e-006 
-0.000359009 5.72103 -7.60749 1.64501e-006 84.9688 -1.5793e-006 -0.310531 0.268375 -0.10535 -0.620586 0.537322 -0.209251 -0.620578 0.537335 -0.209248 24.8491 14.5835 -6.65269 19.4399 21.8116 -7.47378 -8.00228 -0.194802 -12.5013 41.0906 -54.0593 46.1147 -162.624 -57.0654 154.779 -6.61522 1.42846 -7.33669 1.39149e-015 1.43125e-014 1.49089e-015 9.93923e-016 1.35174e-014 -5.34234e-015 5.96354e-016 1.43125e-014 -2.5345e-015 1.39149e-015 1.43125e-014 1.49089e-015 -0.0128015 0.00233316 8.68506e-005 -8.03344e-007 -1.01434e-005 -8.87306e-006 1.39149e-015 1.43125e-014 1.49089e-015 -0.0160457 0.00299542 0.000859938 -5.96354e-016 -1.59028e-015 3.57812e-015 1.39149e-015 1.43125e-014 1.49089e-015 -0.0125661 0.00312209 0.00282854 1.98785e-016 -7.95139e-016 -7.90169e-015 1.39149e-015 1.43125e-014 1.49089e-015 9.93923e-016 1.35174e-014 -5.34234e-015 5.96354e-016 1.43125e-014 -2.5345e-015 7.13389 -0.0291817 7.03582 -34.1402 -56.0263 -38.6238 166.972 -56.5748 -151.635 6.45463 1.28459 7.50888 1.99472e-006 6.64257e-006 1.20466e-006 6.48901e-007 -9.53031e-006 4.36248e-006 -6.489e-007 9.53031e-006 -4.36248e-006 1.99472e-006 6.64257e-006 1.20466e-006 0.0129423 0.00229842 -8.77609e-005 7.84085e-006 4.41962e-006 -5.20404e-006 1.99472e-006 6.64257e-006 1.20466e-006 0.016315 0.00303917 -0.00087684 -3.45132e-006 -1.26028e-005 -1.27987e-006 1.99472e-006 6.64257e-006 1.20466e-006 0.0145838 0.00366526 -0.00327226 -2.69118e-006 -7.30256e-006 6.31526e-006 1.99472e-006 6.64257e-006 1.20466e-006 6.48901e-007 -9.53031e-006 4.36248e-006 -6.489e-007 9.53031e-006 -4.36248e-006 -117.414 -25.8629 -103.66 176.954 43.3686 177.628 4.40007 14.3255 -7.68548 9.49366e-006 -4.14792e-006 -1.26386e-006 117.412 -25.8833 103.665 -176.871 43.3779 -177.657 -4.40677 14.2887 7.67933 4.80205e-007 5.63508e-006 7.23037e-006 
-0.000363031 5.69239 -7.59051 1.48857e-007 84.7241 -1.47798e-007 -0.310694 0.330293 -0.104347 -0.620808 0.661193 -0.206908 -0.620808 0.661196 -0.206908 24.8491 14.5834 -6.65268 19.4399 21.8116 -7.47378 -8.00229 -0.19486 -12.5013 41.0906 -54.0593 46.1147 -162.624 -57.0654 154.779 -6.61523 1.42845 -7.33666 7.95139e-016 0 2.60905e-015 1.39149e-015 -7.95139e-016 2.48481e-015 -3.40431e-006 -2.92803e-006 2.54586e-007 7.95139e-016 0 2.60905e-015 -0.0128099 0.00233228 8.71408e-005 -1.98785e-016 1.51076e-014 8.00108e-015 7.95139e-016 0 2.60905e-015 -0.0160595 0.00300553 0.000862187 -2.10669e-006 -3.10153e-006 -7.23205e-007 7.95139e-016 0 2.60905e-015 -0.0125775 0.00312729 0.00283036 3.97569e-016 7.95139e-016 -4.57205e-015 7.95139e-016 0 2.60905e-015 1.39149e-015 -7.95139e-016 2.48481e-015 -3.40431e-006 -2.92803e-006 2.54586e-007 7.13389 -0.0292339 7.03582 -34.1401 -56.0263 -38.6238 166.972 -56.5748 -151.635 6.45462 1.28461 7.50891 -7.95139e-016 7.95139e-016 -4.07509e-015 1.75026e-006 3.19956e-007 1.44933e-006 -7.95139e-016 0 2.65874e-015 -7.95139e-016 7.95139e-016 -4.07509e-015 0.0129606 0.00231414 -8.88223e-005 -1.69823e-006 9.11154e-008 1.67382e-007 -7.95139e-016 7.95139e-016 -4.07509e-015 0.0163356 0.00303471 -0.000876487 -7.10363e-032 1.59028e-015 2.55935e-015 -7.95139e-016 7.95139e-016 -4.07509e-015 0.0146043 0.00370071 -0.00326969 7.95139e-016 -7.95139e-016 3.97569e-016 -7.95139e-016 7.95139e-016 -4.07509e-015 1.75026e-006 3.19956e-007 1.44933e-006 -7.95139e-016 0 2.65874e-015 -117.155 -26.0112 -103.391 176.954 43.3665 177.632 4.20259 14.2665 -7.60266 -7.19224e-006 -1.31315e-006 -2.3204e-006 117.152 -26.0329 103.395 -176.871 43.3766 -177.661 -4.2083 14.2209 7.59546 -3.11468e-007 -5.72406e-006 9.6466e-007 
